<?xml version="1.0" encoding="utf-8"?>
<!-- Generator: Adobe Illustrator 27.5.0, SVG Export Plug-In . SVG Version: 6.00 Build 0)  -->
<svg version="1.1" xmlns="http://www.w3.org/2000/svg" xmlns:xlink="http://www.w3.org/1999/xlink" x="0px" y="0px"
	 viewBox="0 0 500 500" style="enable-background:new 0 0 500 500;" xml:space="preserve">
<g id="BACKGROUND">
</g>
<g id="OBJECTS">
	<g>
		<polyline style="fill:none;stroke:#130F40;stroke-linecap:round;stroke-linejoin:round;stroke-miterlimit:10;" points="
			175.126,457.695 175.126,271.471 135.806,271.471 89.107,457.695 		"/>
		
			<line style="fill:none;stroke:#130F40;stroke-linecap:round;stroke-linejoin:round;stroke-miterlimit:10;" x1="158.996" y1="271.471" x2="112.297" y2="457.695"/>
		
			<line style="fill:none;stroke:#130F40;stroke-linecap:round;stroke-linejoin:round;stroke-miterlimit:10;" x1="134.425" y1="276.977" x2="157.613" y2="276.977"/>
		
			<line style="fill:none;stroke:#130F40;stroke-linecap:round;stroke-linejoin:round;stroke-miterlimit:10;" x1="132.116" y1="285.799" x2="155.303" y2="285.799"/>
	</g>
	<g>
		<path style="fill:#6A6AE2;" d="M196.814,457.695H92.757c-2.75,0-4.98-2.23-4.98-4.98V297.106c0-2.75,2.23-4.98,4.98-4.98h104.057
			c2.75,0,4.98,2.23,4.98,4.98v155.608C201.794,455.465,199.565,457.695,196.814,457.695z"/>
		<rect x="96.522" y="303.606" style="fill:#54C3EA;" width="96.528" height="143.363"/>
		<g>
			<circle style="fill:#FFFFFF;" cx="122.832" cy="328.068" r="10.059"/>
			<g>
				
					<line style="fill:none;stroke:#0071BC;stroke-linecap:round;stroke-linejoin:round;stroke-miterlimit:10;" x1="144.456" y1="320.486" x2="162.057" y2="320.486"/>
				
					<line style="fill:none;stroke:#0071BC;stroke-linecap:round;stroke-linejoin:round;stroke-miterlimit:10;" x1="144.456" y1="325.541" x2="176.798" y2="325.541"/>
				
					<line style="fill:none;stroke:#0071BC;stroke-linecap:round;stroke-linejoin:round;stroke-miterlimit:10;" x1="144.456" y1="330.595" x2="176.798" y2="330.595"/>
				
					<line style="fill:none;stroke:#0071BC;stroke-linecap:round;stroke-linejoin:round;stroke-miterlimit:10;" x1="144.456" y1="335.65" x2="176.798" y2="335.65"/>
			</g>
			
				<ellipse transform="matrix(0.9239 -0.3827 0.3827 0.9239 -128.2428 74.3746)" style="fill:#FFFFFF;" cx="122.832" cy="359.548" rx="10.059" ry="10.059"/>
			<g>
				
					<line style="fill:none;stroke:#0071BC;stroke-linecap:round;stroke-linejoin:round;stroke-miterlimit:10;" x1="144.456" y1="351.966" x2="162.057" y2="351.966"/>
				
					<line style="fill:none;stroke:#0071BC;stroke-linecap:round;stroke-linejoin:round;stroke-miterlimit:10;" x1="144.456" y1="357.021" x2="176.798" y2="357.021"/>
				
					<line style="fill:none;stroke:#0071BC;stroke-linecap:round;stroke-linejoin:round;stroke-miterlimit:10;" x1="144.456" y1="362.075" x2="176.798" y2="362.075"/>
				
					<line style="fill:none;stroke:#0071BC;stroke-linecap:round;stroke-linejoin:round;stroke-miterlimit:10;" x1="144.456" y1="367.129" x2="176.798" y2="367.129"/>
			</g>
			
				<ellipse transform="matrix(0.1602 -0.9871 0.9871 0.1602 -282.8223 449.638)" style="fill:#FFFFFF;" cx="122.832" cy="391.028" rx="10.059" ry="10.059"/>
			<g>
				
					<line style="fill:none;stroke:#0071BC;stroke-linecap:round;stroke-linejoin:round;stroke-miterlimit:10;" x1="144.456" y1="383.446" x2="162.057" y2="383.446"/>
				
					<line style="fill:none;stroke:#0071BC;stroke-linecap:round;stroke-linejoin:round;stroke-miterlimit:10;" x1="144.456" y1="388.501" x2="176.798" y2="388.501"/>
				
					<line style="fill:none;stroke:#0071BC;stroke-linecap:round;stroke-linejoin:round;stroke-miterlimit:10;" x1="144.456" y1="393.555" x2="176.798" y2="393.555"/>
				
					<line style="fill:none;stroke:#0071BC;stroke-linecap:round;stroke-linejoin:round;stroke-miterlimit:10;" x1="144.456" y1="398.609" x2="176.798" y2="398.609"/>
			</g>
			<circle style="fill:#FFFFFF;" cx="122.832" cy="422.508" r="10.059"/>
			<g>
				
					<line style="fill:none;stroke:#0071BC;stroke-linecap:round;stroke-linejoin:round;stroke-miterlimit:10;" x1="144.456" y1="414.926" x2="162.057" y2="414.926"/>
				
					<line style="fill:none;stroke:#0071BC;stroke-linecap:round;stroke-linejoin:round;stroke-miterlimit:10;" x1="144.456" y1="419.981" x2="176.798" y2="419.981"/>
				
					<line style="fill:none;stroke:#0071BC;stroke-linecap:round;stroke-linejoin:round;stroke-miterlimit:10;" x1="144.456" y1="425.035" x2="176.798" y2="425.035"/>
				
					<line style="fill:none;stroke:#0071BC;stroke-linecap:round;stroke-linejoin:round;stroke-miterlimit:10;" x1="144.456" y1="430.09" x2="176.798" y2="430.09"/>
			</g>
		</g>
		<rect x="129.197" y="295.655" style="fill:#171659;" width="31.178" height="4.348"/>
		<path style="fill:none;stroke:#130F40;stroke-linecap:round;stroke-linejoin:round;stroke-miterlimit:10;" d="M160.282,310.234
			H129.29c-1.911,0-3.461-1.549-3.461-3.461v-5.484c0-1.911,1.549-3.461,3.461-3.461h30.992c1.911,0,3.461,1.549,3.461,3.461v5.484
			C163.742,308.685,162.193,310.234,160.282,310.234z"/>
		
			<polyline style="fill:none;stroke:#0071BC;stroke-width:2;stroke-linecap:round;stroke-linejoin:round;stroke-miterlimit:10;" points="
			117.827,325.785 122.832,331.239 135.655,319.842 		"/>
		
			<polyline style="fill:none;stroke:#0071BC;stroke-width:2;stroke-linecap:round;stroke-linejoin:round;stroke-miterlimit:10;" points="
			117.827,357.021 122.832,362.475 135.655,351.078 		"/>
		
			<polyline style="fill:none;stroke:#0071BC;stroke-width:2;stroke-linecap:round;stroke-linejoin:round;stroke-miterlimit:10;" points="
			117.827,388.256 122.832,393.711 135.655,382.314 		"/>
		
			<polyline style="fill:none;stroke:#0071BC;stroke-width:2;stroke-linecap:round;stroke-linejoin:round;stroke-miterlimit:10;" points="
			117.827,419.492 122.832,424.947 135.655,413.55 		"/>
	</g>
	<g>
		<path style="fill:#FFCFC0;" d="M210.531,364.935l-2.145,12.244c-1.299,7.479,1.519,15.085,7.386,19.897l9.925,8.151l9.798-33.277
			c0.394-1.322,0.684-2.667,0.87-4.012c0.197-1.333,0.29-2.678,0.29-4.012c0-3.339-0.591-6.679-1.774-9.856
			c-0.128-0.359-0.301-0.696-0.522-0.997l-4.731-6.899l-12.799-18.632l-21.873,20.658L210.531,364.935z"/>
		<path style="fill:none;stroke:#FF8E77;stroke-linecap:round;stroke-linejoin:round;stroke-miterlimit:10;" d="M217.001,373.825
			l2.819,20.586c0.218,1.592,1.481,2.837,3.076,3.031l0,0c1.828,0.223,3.522-0.995,3.893-2.799l3.692-17.967"/>
		<path style="fill:#171659;" d="M340.777,225.796c-21.451,12.175-131.603,31.596-143.198,24.06
			c-11.595-7.537-0.87-18.262-0.87-18.262c-6.018-4.8-16.813-18.842-1.449-34.785c15.363-15.943,26.378-6.377,18.262-28.698
			c-8.116-22.32,15.943-29.857,8.117-47.957c-7.827-18.1,3.386-47.597,39.423-57.558c1.913-0.533,3.954-0.951,6.087-1.241
			c15.444-2.076,35.608,2.644,45.8,21.242c7.455,13.612,6.4,36.327,5.241,54.589c-0.649,10.134-1.322,18.9-0.603,23.967
			c2.029,14.204,17.102,5.797,24.059,15.073s-2.319,18.459-2.319,18.459C358.459,192.564,362.228,213.621,340.777,225.796z"/>
		<path style="fill:#0071BC;" d="M338.922,208.983l-34.089-13.531l-0.406-6.737c-0.209-3.409-3.038-6.041-6.447-6.006
			c-10.215,0.116-31.19,0.812-46.554,4.279c-4.464,1.009-7.061,5.658-5.612,10.007c0.441,1.345,0.986,2.69,1.623,3.873l-6.308,2.852
			c-7.444,3.363-14.32,7.827-20.407,13.23c-2.493,2.191-4.858,4.557-7.073,7.073l-47.876,54.253
			c-9.914,11.236-9.693,28.153,0.51,39.121l28.671,30.805l21.873-20.658l-19.053-27.736l17.601-17.219l26.263-25.683h81.942
			c0,0,3.119,6.632,7.201,16.558c6.841-19.677,18.366-40.629,25.648-52.943C351.525,215.592,345.6,211.626,338.922,208.983z"/>
		<polygon style="fill:#FFCFC0;" points="297.678,148.214 297.678,192.17 259.415,192.17 259.125,182.697 258.65,166.986 
			297.435,148.329 		"/>
		<path style="fill:#FF8E77;" d="M297.435,148.329c-1.345,5.577-9.032,30.912-38.31,34.368l-0.475-15.711L297.435,148.329z"/>
		<path style="fill:#FFCFC0;" d="M310.05,114.101c0,10.807-4.267,20.616-11.212,27.84v9.264c0,0-19.514,23.573-41.348,23.573
			c-21.845,0-27.828-37.684-27.828-59.517h0.023c-0.023-0.383-0.023-0.765-0.023-1.16c0-22.204,17.995-40.2,40.188-40.2
			C292.055,73.901,310.05,91.897,310.05,114.101z"/>
		<path style="fill:#171659;" d="M318.19,137.187l-17.995-0.951c0,0-6.377-9.902-5.021-36.211c0,0-23.341-7.201-28.025-38.669
			c15.444-2.076,35.608,2.644,45.8,21.242C320.404,96.21,319.349,118.925,318.19,137.187z"/>
		<path style="fill:#FFCFC0;" d="M298.367,129.615c0,0,12.429-15.589,20.645-6.741s-10.112,43.608-21.699,27.597
			S298.367,129.615,298.367,129.615z"/>
		<path style="fill:none;stroke:#FF8E77;stroke-linecap:round;stroke-linejoin:round;stroke-miterlimit:10;" d="M303.093,140.59
			c0,0,4.831-19.524,13.141-13.931"/>
		<path style="fill:none;stroke:#FF8E77;stroke-linecap:round;stroke-linejoin:round;stroke-miterlimit:10;" d="M308.829,129.541
			c0,0,4.903,6.607-1.611,13.381"/>
		<path style="fill:#0071BC;" d="M334.689,350.65c2.134,3.409,4.128,7.003,5.983,10.714l-104.308,6.574l-4.684,0.301
			c0.916-3.757,1.473-5.913,1.473-5.913l-0.081-0.058c-4.151-2.69-5.971-7.815-4.51-12.534c0.383-1.229,0.742-2.412,1.067-3.56
			c8.557-29.59,0.081-31.272-10.308-50.311c-2.191-4.012-3.409-8.546-3.942-13.276c-2.296-20.303,8.001-44.038,8.001-44.038
			l-2.655-21.602c6.087-5.403,12.963-9.867,20.407-13.23l6.308-2.852c-0.638-1.183-1.183-2.528-1.623-3.873
			c-1.449-4.348,1.148-8.998,5.612-10.007c15.363-3.467,36.339-4.163,46.554-4.279c3.409-0.035,6.238,2.597,6.447,6.006l0.406,6.737
			l34.089,13.531c6.679,2.644,12.604,6.609,17.508,11.537c-7.282,12.314-18.807,33.266-25.648,52.943
			c-2.736,7.885-4.719,15.56-5.368,22.401c-1.797,18.761,2.957,30.228,7.444,36.64C336.579,337.838,337.298,344.702,334.689,350.65z
			"/>
		<path style="fill:none;stroke:#FF8E77;stroke-linecap:round;stroke-linejoin:round;stroke-miterlimit:10;" d="M252.945,112.455
			c0,0,3.035,20.228-14.784,22.61l11.015,9.856"/>
		<path style="fill:#171659;" d="M245.651,121.517c0,2.283-0.811,4.134-1.812,4.134c-1.001,0-1.812-1.851-1.812-4.134
			c0-2.283,0.811-4.134,1.812-4.134C244.84,117.383,245.651,119.234,245.651,121.517z"/>
		<path style="fill:#171659;" d="M273.169,121.517c0,2.283-0.812,4.134-1.812,4.134c-1.001,0-1.812-1.851-1.812-4.134
			c0-2.283,0.811-4.134,1.812-4.134C272.357,117.383,273.169,119.234,273.169,121.517z"/>
		<path style="fill:none;stroke:#FF8E77;stroke-linecap:round;stroke-linejoin:round;stroke-miterlimit:10;" d="M274.492,144.921
			c0,0-1.932,7.727-12.948,9.709"/>
		<path style="fill:none;stroke:#171659;stroke-linecap:round;stroke-linejoin:round;stroke-miterlimit:10;" d="M235.263,106.754
			c0,0,4.251-5.411,12.175-0.773"/>
		<path style="fill:none;stroke:#171659;stroke-linecap:round;stroke-linejoin:round;stroke-miterlimit:10;" d="M261.545,105.428
			c0,0,9.083-4.804,15.46,0"/>
		<path style="fill:#171659;" d="M365.706,457.695H215.041c2.4-29.312,12.766-73.593,16.639-89.455l108.993-6.876
			c0.568,1.125,1.125,2.261,1.658,3.397c2.319,4.928,4.418,10.03,6.319,15.201c4.023,10.923,7.154,22.147,9.577,32.535
			C364.025,437.473,365.706,457.695,365.706,457.695z"/>
		<path style="fill:none;stroke:#130F40;stroke-linecap:round;stroke-linejoin:round;stroke-miterlimit:10;" d="M215.377,282.588
			c-2.296-20.303,8.001-44.038,8.001-44.038"/>
		<path style="fill:none;stroke:#130F40;stroke-linecap:round;stroke-linejoin:round;stroke-miterlimit:10;" d="M330.782,273.462
			c-6.818-13.462-12.036-20.129-12.036-20.129"/>
		
			<line style="fill:none;stroke:#130F40;stroke-linecap:round;stroke-linejoin:round;stroke-miterlimit:10;" x1="236.517" y1="361.191" x2="330.782" y2="351.021"/>
		<g>
			<path style="fill:#FFCFC0;" d="M373.625,414.596c0.383,17.485-4.731,29.474-4.731,29.474v5.368c0,4.557-3.699,8.256-8.267,8.256
				h-17.995c-4.197,0-7.722-3.142-8.209-7.316l-1.148-10.006c-0.406-3.444,0.232-6.934,1.82-10.018l10.122-19.619
				c0,0,2.064-13.496,3.432-30.773c0.406-5.16,0.754-10.656,0.974-16.233l32.234-0.916
				C379.864,392.578,373.625,414.596,373.625,414.596z"/>
			
				<line style="fill:none;stroke:#FF8E77;stroke-linecap:round;stroke-linejoin:round;stroke-miterlimit:10;" x1="361.373" y1="457.658" x2="359.619" y2="443.056"/>
			
				<line style="fill:none;stroke:#FF8E77;stroke-linecap:round;stroke-linejoin:round;stroke-miterlimit:10;" x1="353.401" y1="457.695" x2="350.198" y2="443.056"/>
			
				<line style="fill:none;stroke:#FF8E77;stroke-linecap:round;stroke-linejoin:round;stroke-miterlimit:10;" x1="344.255" y1="457.695" x2="341.067" y2="442.187"/>
		</g>
		
			<line style="fill:none;stroke:#130F40;stroke-linecap:round;stroke-linejoin:round;stroke-miterlimit:10;" x1="279.903" y1="407.064" x2="283.65" y2="457.695"/>
		
			<line style="fill:none;stroke:#130F40;stroke-linecap:round;stroke-linejoin:round;stroke-miterlimit:10;" x1="235.649" y1="373.825" x2="336.912" y2="366.385"/>
		<path style="fill:none;stroke:#130F40;stroke-linecap:round;stroke-linejoin:round;stroke-miterlimit:10;" d="M269.845,371.312
			l-15.171,5.474c-4.127,1.489-5.578,6.586-2.855,10.026l0,0c2.912,3.678,8.657,3.093,10.768-1.097L269.845,371.312z"/>
		<path style="fill:none;stroke:#130F40;stroke-linecap:round;stroke-linejoin:round;stroke-miterlimit:10;" d="M269.845,371.312
			l10.45,11.793c2.727,3.077,7.641,2.688,9.85-0.78l0,0c2.479-3.893-0.024-9.032-4.617-9.481L269.845,371.312z"/>
		<polyline style="fill:none;stroke:#130F40;stroke-linecap:round;stroke-linejoin:round;stroke-miterlimit:10;" points="
			266.376,396.435 269.845,371.312 276.038,395.082 		"/>
		<path style="fill:#0071BC;" d="M380.977,319.135c-3.038-25.683-7.073-51.737-10.238-70.741
			c-1.786-10.725-6.876-20.419-14.308-27.874c-7.282,12.314-18.807,33.266-25.648,52.943c7.038,17.103,16.917,43.991,18.506,63.448
			c0.683,8.395,0.687,17.713,0.335,26.823l32.232-0.915C382.75,349.393,382.779,334.395,380.977,319.135z"/>
	</g>
	<g>
		<path style="fill:#B3B3FF;" d="M186.238,118.117c0,0,0,60.294,0,96.818c0,36.524-13.015,51.068-13.015,51.068H98.458
			c0,0,13.015-14.544,13.015-51.068c0-36.524,0-96.818,0-96.818"/>
		<rect x="109.421" y="113.712" style="fill:#6A6AE2;" width="78.262" height="8.094"/>
		<g>
			
				<line style="fill:none;stroke:#6A6AE2;stroke-width:0.5;stroke-linecap:round;stroke-linejoin:round;stroke-miterlimit:10;" x1="121.306" y1="130.869" x2="143.093" y2="130.869"/>
			
				<line style="fill:none;stroke:#6A6AE2;stroke-width:0.5;stroke-linecap:round;stroke-linejoin:round;stroke-miterlimit:10;" x1="121.306" y1="136.505" x2="152.595" y2="136.505"/>
			
				<line style="fill:none;stroke:#6A6AE2;stroke-width:0.5;stroke-linecap:round;stroke-linejoin:round;stroke-miterlimit:10;" x1="121.306" y1="142.142" x2="152.595" y2="142.142"/>
			
				<line style="fill:none;stroke:#6A6AE2;stroke-width:0.5;stroke-linecap:round;stroke-linejoin:round;stroke-miterlimit:10;" x1="121.306" y1="147.778" x2="152.595" y2="147.778"/>
			
				<line style="fill:none;stroke:#6A6AE2;stroke-width:0.5;stroke-linecap:round;stroke-linejoin:round;stroke-miterlimit:10;" x1="121.306" y1="153.415" x2="152.595" y2="153.415"/>
		</g>
		<g>
			
				<line style="fill:none;stroke:#6A6AE2;stroke-width:0.5;stroke-linecap:round;stroke-linejoin:round;stroke-miterlimit:10;" x1="121.306" y1="164.999" x2="143.093" y2="164.999"/>
			
				<line style="fill:none;stroke:#6A6AE2;stroke-width:0.5;stroke-linecap:round;stroke-linejoin:round;stroke-miterlimit:10;" x1="121.306" y1="170.636" x2="152.595" y2="170.636"/>
			
				<line style="fill:none;stroke:#6A6AE2;stroke-width:0.5;stroke-linecap:round;stroke-linejoin:round;stroke-miterlimit:10;" x1="121.306" y1="176.272" x2="152.595" y2="176.272"/>
			
				<line style="fill:none;stroke:#6A6AE2;stroke-width:0.5;stroke-linecap:round;stroke-linejoin:round;stroke-miterlimit:10;" x1="121.306" y1="181.909" x2="152.595" y2="181.909"/>
			
				<line style="fill:none;stroke:#6A6AE2;stroke-width:0.5;stroke-linecap:round;stroke-linejoin:round;stroke-miterlimit:10;" x1="121.306" y1="187.545" x2="152.595" y2="187.545"/>
		</g>
		<g>
			
				<line style="fill:none;stroke:#6A6AE2;stroke-width:0.5;stroke-linecap:round;stroke-linejoin:round;stroke-miterlimit:10;" x1="121.306" y1="199.13" x2="143.093" y2="199.13"/>
			
				<line style="fill:none;stroke:#6A6AE2;stroke-width:0.5;stroke-linecap:round;stroke-linejoin:round;stroke-miterlimit:10;" x1="121.306" y1="204.766" x2="152.595" y2="204.766"/>
			
				<line style="fill:none;stroke:#6A6AE2;stroke-width:0.5;stroke-linecap:round;stroke-linejoin:round;stroke-miterlimit:10;" x1="121.306" y1="210.403" x2="152.595" y2="210.403"/>
			
				<line style="fill:none;stroke:#6A6AE2;stroke-width:0.5;stroke-linecap:round;stroke-linejoin:round;stroke-miterlimit:10;" x1="121.306" y1="216.039" x2="152.595" y2="216.039"/>
			
				<line style="fill:none;stroke:#6A6AE2;stroke-width:0.5;stroke-linecap:round;stroke-linejoin:round;stroke-miterlimit:10;" x1="121.306" y1="221.676" x2="152.595" y2="221.676"/>
		</g>
	</g>
	<g>
		<path style="fill:#54C3EA;" d="M219.214,73.206c0,17.068-15.363,30.901-34.298,30.901c-1.125,0-2.238-0.046-3.339-0.151
			l-11.827,14.575l2.4-16.639c-12.627-4.557-21.543-15.688-21.543-28.686c0-17.068,15.363-30.901,34.309-30.901
			C203.85,42.305,219.214,56.138,219.214,73.206z"/>
		<polygon style="fill:#FFFFFF;" points="172.469,67.959 167.699,72.307 177.777,87.96 205.804,64.77 179.764,78.974 		"/>
	</g>
	<g>
		<polygon style="fill:#54B4C1;" points="422.37,148.336 437.75,139.926 422.37,131.516 431.492,116.543 413.96,116.97 
			414.387,99.438 399.413,108.559 391.002,93.178 382.592,108.559 367.62,99.437 368.046,116.969 350.515,116.543 359.636,131.516 
			344.255,139.926 359.636,148.336 350.514,163.309 368.046,162.883 367.619,180.414 382.592,171.293 391.002,186.673 
			399.413,171.293 414.386,180.415 413.96,162.883 431.49,163.31 		"/>
		<polygon style="fill:#FFFFFF;" points="414.857,130.63 400.299,130.63 400.299,116.071 381.707,116.071 381.707,130.63 
			367.148,130.63 367.148,149.222 381.707,149.222 381.707,163.781 400.299,163.781 400.299,149.222 414.857,149.222 		"/>
	</g>
	<g>
		<path style="fill:#FFFFFF;" d="M307.867,268.407h-54.841c-3.107,0-5.625-2.518-5.625-5.625v-13.969
			c0-3.107,2.518-5.625,5.625-5.625h54.841c3.107,0,5.625,2.518,5.625,5.625v13.969
			C313.492,265.889,310.974,268.407,307.867,268.407z"/>
		<path style="fill:#FF5562;" d="M263.638,254.402c-0.004,0.527-0.108,1.026-0.306,1.455c-0.04,0.086-0.125,0.258-0.174,0.338
			c-0.945,1.552-4.592,4.146-4.592,4.146s-0.608-0.445-1.386-1.078c-0.065-0.052-0.132-0.106-0.2-0.162
			c-1.09-0.897-2.429-2.097-2.939-2.967c-0.048-0.08-0.129-0.253-0.168-0.339c-0.192-0.431-0.288-0.933-0.283-1.459
			c0.014-1.711,1.149-3.091,2.537-3.081c1.388,0.009,2.501,0.806,2.487,2.518c0.014-1.711,1.15-2.494,2.538-2.486
			C262.538,251.296,263.651,252.69,263.638,254.402z"/>
		<polyline style="fill:none;stroke:#FF5562;stroke-linecap:round;stroke-linejoin:round;stroke-miterlimit:10;" points="
			265.301,256.305 268.562,256.305 270.591,260.943 273.635,253.044 278.563,260.943 282.621,254.855 284.577,257.827 
			286.969,253.986 289.215,259.348 293.419,245.145 296.68,256.305 304.724,256.305 		"/>
		<polygon style="fill:#FFFFFF;" points="278.164,267.594 297.678,303.606 283.65,266.003 		"/>
	</g>
	<g>
		<path style="fill:#171659;" d="M318.38,308.73c0,0-3.515-4.161,0.833-5.067c4.348-0.906,5.797,9.421,0,5.797L318.38,308.73z"/>
		<path style="fill:#FFFFFF;" d="M316.568,308.301c0,0,0.58-2.102,2.21-0.761c1.63,1.341,1.268,2.826-0.362,2.826"/>
		<path style="fill:#FFCFC0;" d="M317.483,327.402l1.878,3.977l-7.247,1.89l-2.18-4.058l-2.168,1.252
			c-1.09,0.638-2.481,0.243-3.061-0.87c-0.568-1.078-1.299-2.481-1.994-4.012h-1.623c-0.429,0-0.731-0.429-0.58-0.835l0.893-2.342
			c-0.359-0.962-0.661-1.902-0.87-2.794c-0.023-0.093-0.046-0.174-0.058-0.267c-0.186-0.765-0.278-1.577-0.278-2.4
			c0-0.893,0.104-1.762,0.313-2.586c1.183-4.754,5.542-8.244,10.691-8.082c5.658,0.186,10.32,4.986,10.331,10.644
			c0,3.142-1.345,5.971-3.502,7.919c-0.51,0.475-0.789,1.125-0.742,1.786C317.297,326.88,317.367,327.147,317.483,327.402z"/>
		<path style="fill:#FFCFC0;" d="M300.531,319.61c-0.035-0.093-0.046-0.174-0.07-0.267h0.012
			C300.485,319.436,300.508,319.518,300.531,319.61z"/>
		<path style="fill:none;stroke:#FF8E77;stroke-width:0.5;stroke-linecap:round;stroke-linejoin:round;stroke-miterlimit:10;" d="
			M302.038,321.744c0,0,0.87-0.471,1.486-1.341"/>
		<path style="fill:#171659;" d="M321.53,316.92c0,3.142-1.345,5.971-3.502,7.919c-0.51,0.475-0.789,1.125-0.742,1.786l-1.148-1.519
			l-0.336,1.496l-1.078-1.276l-0.325,1.6l-3.884-6.11c-5.774-0.452-6.632-7.514-6.632-7.514l-3.374,1.055
			c1.183-4.754,5.542-8.244,10.691-8.082C316.857,306.462,321.518,311.262,321.53,316.92z"/>
		
			<path style="fill:#FFCFC0;stroke:#FF8E77;stroke-width:0.5;stroke-linecap:round;stroke-linejoin:round;stroke-miterlimit:10;" d="
			M308.617,320.938c0,0-0.221-3.858,2.688-3.795c2.909,0.063,4.206,8.76-0.854,7.906"/>
		<path style="fill:none;stroke:#FF8E77;stroke-width:0.5;stroke-linecap:round;stroke-linejoin:round;stroke-miterlimit:10;" d="
			M312.064,319.803c0,0-0.538-1.87-1.834-0.415c-1.297,1.455,0,3.415,0,3.415"/>
		<path style="fill:none;stroke:#FF8E77;stroke-width:0.5;stroke-linecap:round;stroke-linejoin:round;stroke-miterlimit:10;" d="
			M309.862,319.943c0,0,1.982,1.059,1.048,2.545"/>
		<polygon style="fill:#54C3EA;" points="294.84,355.852 285.371,343.533 299.768,338.073 303.826,343.243 		"/>
		<path style="fill:#FFFFFF;" d="M309.285,334.861c0,0,2.319-5.29,7.609-6.015c5.29-0.725,5.797,4.423,5.797,4.423L309.285,334.861z
			"/>
		<path style="fill:#FFCFC0;" d="M290.733,357.007c0,0,2.102-7.58,5.942-5.261C300.517,354.065,290.733,357.007,290.733,357.007z"/>
		<polygon style="fill:#54B4C1;" points="329.359,400.203 329.359,450.375 315.083,450.375 315.989,398.46 		"/>
		<polygon style="fill:#FFFFFF;" points="327.857,449.941 327.857,457.695 307.618,457.658 318.726,449.941 		"/>
		<polygon style="fill:#FFFFFF;" points="319.576,449.941 319.576,457.695 299.337,457.658 310.445,449.941 		"/>
		<path style="fill:#FFFFFF;" d="M335.826,360.216c0,1.867-1.333,3.536-3.247,3.896c-1.786,0.313-3.513-0.603-4.279-2.18
			c-0.128-0.255-0.22-0.545-0.29-0.835l-3.212-14.204h-14.575l-6.424,9.995l-3.687,5.739c-2.852,4.441-10.006,2.679-10.064-2.597
			c0-0.209,0.012-0.406,0.035-0.603c0.51-4.777,4.267-5.438,4.267-5.438l7.711-14.436c0.348-0.661,0.765-1.275,1.241-1.844
			c0.87-1.078,1.96-1.983,3.189-2.667c3.247-1.797,8.511-4.337,12.557-4.337c1.542,0,3.931,1.032,6.041,2.134
			c2.806,1.461,4.858,4.07,5.647,7.131l0.429,1.681l4.534,17.578C335.78,359.555,335.826,359.891,335.826,360.216z"/>
		
			<line style="fill:none;stroke:#130F40;stroke-width:0.5;stroke-linecap:round;stroke-linejoin:round;stroke-miterlimit:10;" x1="319.576" y1="449.941" x2="319.576" y2="457.695"/>
		<polygon style="fill:#54B4C1;" points="306.207,398.862 307.618,450.357 320.59,450.357 320.59,398.271 		"/>
		
			<line style="fill:none;stroke:#130F40;stroke-width:0.5;stroke-linecap:round;stroke-linejoin:round;stroke-miterlimit:10;" x1="320.59" y1="450.357" x2="320.59" y2="398.271"/>
		<path style="fill:#FFFFFF;" d="M299.337,401.842c1.044-6.702,5.855-35.921,4.464-44.954c-0.151-0.986-0.383-1.739-0.696-2.192
			c-3.015-4.302-1.02-8.429,0.197-16.987c0.87-1.078,1.96-1.983,3.189-2.667c3.247-1.797,8.511-4.337,12.557-4.337
			c1.542,0,3.931,1.032,6.041,2.134c2.806,1.461,4.858,4.07,5.647,7.131l0.429,1.681c-3.003,6.087-3.107,15.108-2.864,20.28
			c0.116,2.47,0.313,4.07,0.313,4.07c3.374,7.629,5.021,35.84,5.021,35.84H299.337z"/>
		<path style="fill:none;stroke:#130F40;stroke-width:0.5;stroke-linecap:round;stroke-linejoin:round;stroke-miterlimit:10;" d="
			M294.351,353.99c-1.734,3.264-3.227,6.525-2.625,7.829"/>
		<path style="fill:none;stroke:#130F40;stroke-width:0.5;stroke-linecap:round;stroke-linejoin:round;stroke-miterlimit:10;" d="
			M303.801,356.888c1.644-2.534,4.812-7.488,4.812-7.488"/>
		<path style="fill:none;stroke:#130F40;stroke-width:0.5;stroke-linecap:round;stroke-linejoin:round;stroke-miterlimit:10;" d="
			M328.301,361.932c0.084-8.292,1.058-20.839,1.058-20.839"/>
		<path style="fill:none;stroke:#130F40;stroke-width:0.5;stroke-linecap:round;stroke-linejoin:round;stroke-miterlimit:10;" d="
			M309.968,333.269c2.037-0.884,4.731-2.027,6.517-2.28"/>
	</g>
	<g>
		<g>
			<path style="fill:#54C3EA;" d="M197.053,129.429c-0.678,5.301-5.524,9.049-10.826,8.371c-5.301-0.678-9.049-5.525-8.371-10.826
				c0.678-5.301,5.524-9.049,10.826-8.371C193.983,119.282,197.731,124.128,197.053,129.429z"/>
			<g style="opacity:0.4;">
				<defs>
					<path id="SVGID_1_" style="opacity:0.4;" d="M197.053,129.429c-0.678,5.301-5.524,9.049-10.826,8.371
						c-5.301-0.678-9.049-5.525-8.371-10.826c0.678-5.301,5.524-9.049,10.826-8.371
						C193.983,119.282,197.731,124.128,197.053,129.429z"/>
				</defs>
				<clipPath id="SVGID_00000044864541076357315600000013134952397357107887_">
					<use xlink:href="#SVGID_1_"  style="overflow:visible;"/>
				</clipPath>
				
					<linearGradient id="SVGID_00000129922400240889647350000008936840424286993853_" gradientUnits="userSpaceOnUse" x1="183.5767" y1="123.2137" x2="175.0883" y2="135.3521" gradientTransform="matrix(0.9919 0.1268 -0.1268 0.9919 22.5317 -23.62)">
					<stop  offset="0" style="stop-color:#FFFFFF"/>
					<stop  offset="1" style="stop-color:#FFFFFF;stop-opacity:0"/>
				</linearGradient>
				
					<polygon style="opacity:0.5;clip-path:url(#SVGID_00000044864541076357315600000013134952397357107887_);fill:url(#SVGID_00000129922400240889647350000008936840424286993853_);" points="
					179.052,136.37 175.544,133.193 192.866,114.067 196.374,117.245 				"/>
				
					<linearGradient id="SVGID_00000081643820076326362210000006969151099574453134_" gradientUnits="userSpaceOnUse" x1="188.3046" y1="126.52" x2="179.8162" y2="138.6584" gradientTransform="matrix(0.9919 0.1268 -0.1268 0.9919 22.5317 -23.62)">
					<stop  offset="0" style="stop-color:#FFFFFF"/>
					<stop  offset="1" style="stop-color:#FFFFFF;stop-opacity:0"/>
				</linearGradient>
				
					<polygon style="opacity:0.5;clip-path:url(#SVGID_00000044864541076357315600000013134952397357107887_);fill:url(#SVGID_00000081643820076326362210000006969151099574453134_);" points="
					182.337,139.574 180.583,137.986 197.905,118.86 199.659,120.449 				"/>
			</g>
			<path style="fill:#130F40;" d="M186.163,138.306c-5.571-0.712-9.524-5.824-8.812-11.395c0.712-5.571,5.824-9.524,11.395-8.812
				c5.571,0.712,9.524,5.824,8.812,11.395C196.846,135.065,191.734,139.018,186.163,138.306z M188.617,119.109
				c-5.014-0.641-9.615,2.917-10.256,7.931c-0.641,5.014,2.917,9.615,7.931,10.256c5.014,0.641,9.615-2.917,10.256-7.931
				C197.189,124.351,193.631,119.75,188.617,119.109z"/>
			
				<rect x="183.358" y="139.817" transform="matrix(0.1268 -0.9919 0.9919 0.1268 23.132 306.9312)" style="fill:#130F40;" width="5.093" height="1.019"/>
			<path style="fill:#0071BC;" d="M187.67,141.75l-1.658,12.966l-3.832-0.49l1.658-12.966c0.107-0.839,0.871-1.429,1.709-1.322
				l0.802,0.102C187.187,140.148,187.777,140.912,187.67,141.75z"/>
			
				<rect x="178.463" y="146.141" transform="matrix(0.1268 -0.9919 0.9919 0.1268 14.5869 312.7158)" style="fill:#171659;" width="12.902" height="3.864"/>
		</g>
		<path style="fill:#FFCFC0;" d="M179.764,154.869l0.477-3.203c0.13-0.87,0.512-1.683,1.1-2.338l2.363-2.633
			c0.669-0.745,1.756-0.996,2.654-0.553c1.655,0.816,3.602,2.76,1.022,7.186l-3.182,3.768L179.764,154.869z"/>
		<polygon style="fill:#171659;" points="144.973,263.717 144.973,271.471 165.212,271.435 154.104,263.717 		"/>
		<path style="fill:#FFCFC0;" d="M167.581,130.334l-1.322,1.565l-0.499,3.942c-0.278,2.18-2.133,3.815-4.325,3.815h-3.467
			l-0.846,6.018l-7.085-1.194l0.51-3.003c0.162-0.939,0.104-1.89-0.162-2.771c-0.359-1.287-1.16-2.423-2.331-3.165
			c-2.98-1.878-4.963-5.195-4.963-8.974c0-5.879,4.766-10.633,10.633-10.633c3.467,0,6.551,1.658,8.476,4.244
			c1.032,1.345,1.728,2.957,2.006,4.708l0.012-0.012c0.487,3.073,1.252,4.51,3.038,4.638
			C167.651,129.534,167.837,130.033,167.581,130.334z"/>
		<path style="fill:#130F40;" d="M155.94,121.104c2.307,3.908,3.096,7.293,0.406,11.444c-2.041,3.142-4.754,5.287-5.96,6.157
			c-0.359-1.287-1.16-2.423-2.331-3.165c-2.98-1.878-4.963-5.195-4.963-8.974c0-5.879,4.766-10.633,10.633-10.633
			c3.467,0,6.551,1.658,8.476,4.244L155.94,121.104z"/>
		<path style="fill:#FFCFC0;" d="M165.209,127.916c0.008-0.099-0.004-0.18-0.008-0.275l-0.011,0.003
			C165.205,127.736,165.205,127.821,165.209,127.916z"/>
		
			<path style="fill:#FFCFC0;stroke:#FF8E77;stroke-width:0.5;stroke-linecap:round;stroke-linejoin:round;stroke-miterlimit:10;" d="
			M157.814,131.447c0,0-0.864-3.767-3.64-2.894c-2.776,0.872-1.595,9.585,3.026,7.354"/>
		<path style="fill:none;stroke:#FF8E77;stroke-width:0.5;stroke-linecap:round;stroke-linejoin:round;stroke-miterlimit:10;" d="
			M154.188,131.319c0,0-0.005-1.945,1.646-0.91c1.651,1.035,0.953,3.28,0.953,3.28"/>
		<path style="fill:none;stroke:#FF8E77;stroke-width:0.5;stroke-linecap:round;stroke-linejoin:round;stroke-miterlimit:10;" d="
			M156.341,130.838c0,0-1.608,1.569-0.296,2.736"/>
		<path style="fill:#FFFFFF;" d="M159.796,148.637c0,0-2.319-5.29-7.609-6.015c-5.29-0.725-5.798,4.423-5.798,4.423L159.796,148.637
			z"/>
		<polygon style="fill:#54B4C1;" points="143.472,213.979 143.472,264.152 157.748,264.152 156.842,212.236 		"/>
		<polygon style="fill:#171659;" points="153.255,263.717 153.255,271.471 173.494,271.435 162.386,263.717 		"/>
		<path style="fill:#FFFFFF;" d="M186.238,157.292l-5.024,16.134c-1.831,5.88-9.697,6.944-13.024,1.761l-2.905-4.526l-6.424-9.995
			h-14.575l-3.212,14.204c-0.07,0.29-0.162,0.58-0.29,0.835c-0.765,1.577-2.493,2.493-4.279,2.18
			c-1.913-0.359-3.247-2.029-3.247-3.896c0-0.325,0.046-0.661,0.128-0.986l4.534-17.578l0.429-1.681
			c0.789-3.061,2.841-5.67,5.647-7.131c2.11-1.101,4.499-2.133,6.041-2.133c4.047,0,9.311,2.539,12.557,4.337
			c1.229,0.684,2.319,1.589,3.189,2.667c0.475,0.568,0.893,1.183,1.241,1.844l7.015,13.126l4.568-12.546L186.238,157.292z"/>
		
			<line style="fill:none;stroke:#130F40;stroke-width:0.5;stroke-linecap:round;stroke-linejoin:round;stroke-miterlimit:10;" x1="153.255" y1="263.717" x2="153.255" y2="271.471"/>
		<polygon style="fill:#54B4C1;" points="166.624,212.639 165.212,264.134 152.24,264.134 152.24,212.047 		"/>
		
			<line style="fill:none;stroke:#130F40;stroke-width:0.5;stroke-linecap:round;stroke-linejoin:round;stroke-miterlimit:10;" x1="152.24" y1="264.134" x2="152.24" y2="212.047"/>
		<path style="fill:#FFFFFF;" d="M169.744,215.618c-1.044-6.702-5.855-35.921-4.464-44.954c0.151-0.986,0.383-1.739,0.696-2.191
			c3.015-4.302,1.02-8.43-0.197-16.987c-0.87-1.078-1.96-1.983-3.189-2.667c-3.247-1.797-8.511-4.337-12.557-4.337
			c-1.542,0-3.931,1.032-6.041,2.133c-2.806,1.461-4.858,4.07-5.647,7.131l-0.429,1.681c3.003,6.087,3.107,15.108,2.864,20.28
			c-0.116,2.47-0.313,4.07-0.313,4.07c-0.745,13.407-5.021,35.84-5.021,35.84H169.744z"/>
		<path style="fill:none;stroke:#130F40;stroke-width:0.5;stroke-linecap:round;stroke-linejoin:round;stroke-miterlimit:10;" d="
			M165.28,170.664c-1.643-2.533-4.812-7.488-4.812-7.488"/>
		<path style="fill:none;stroke:#130F40;stroke-width:0.5;stroke-linecap:round;stroke-linejoin:round;stroke-miterlimit:10;" d="
			M140.78,175.708c-0.084-8.292-1.058-20.839-1.058-20.839"/>
		<path style="fill:none;stroke:#130F40;stroke-width:0.5;stroke-linecap:round;stroke-linejoin:round;stroke-miterlimit:10;" d="
			M159.113,147.045c-2.037-0.884-4.731-2.027-6.517-2.28"/>
		<path style="fill:#130F40;" d="M163.338,127.154c0,0.7-0.162,1.268-0.362,1.268s-0.362-0.568-0.362-1.268
			c0-0.7,0.162-1.268,0.362-1.268S163.338,126.453,163.338,127.154z"/>
		<path style="fill:none;stroke:#FF8E77;stroke-width:0.5;stroke-linecap:round;stroke-linejoin:round;stroke-miterlimit:10;" d="
			M161.309,133.229c0,0,0.263,1.675,2.464,1.304"/>
		<path style="fill:#FFFFFF;" d="M162.613,120.757c0,0,1.401-3.036,4.445-3.809l0.641,7.633
			C167.699,124.581,164.594,124.324,162.613,120.757z"/>
		
			<line style="fill:none;stroke:#FFFFFF;stroke-width:0.5;stroke-linecap:round;stroke-linejoin:round;stroke-miterlimit:10;" x1="162.613" y1="120.757" x2="143.279" y2="124.581"/>
	</g>
	<path style="fill:#FBB03B;" d="M367.148,298.064c0,0-0.303-24.601-24.601-24.601c0,0,24.601-0.304,24.601-24.601
		c0,0,0.304,24.601,24.601,24.601C391.749,273.463,367.148,273.766,367.148,298.064z"/>
	<path style="fill:#FBB03B;" d="M341.067,320.731c0,0-0.168-13.638-13.638-13.638c0,0,13.638-0.168,13.638-13.638
		c0,0,0.168,13.638,13.638,13.638C354.705,307.093,341.067,307.261,341.067,320.731z"/>
	<g>
		<path style="fill:#0071BC;" d="M236.574,413.414v38.913c0,2.968-2.4,5.368-5.368,5.368h-36.802c-2.968,0-5.368-2.4-5.368-5.368
			v-38.913c0-0.325,0.012-0.649,0.046-0.962c0.487-5.183,4.858-9.253,10.169-9.253h27.109
			C231.993,403.198,236.574,407.779,236.574,413.414z"/>
		<path style="fill:#171659;" d="M231.936,412.451v36.397h-42.901v-35.434c0-0.325,0.012-0.649,0.046-0.962H231.936z"/>
		<rect x="189.034" y="417.402" style="fill:#FFFFFF;" width="37.127" height="12.685"/>
		
			<line style="fill:none;stroke:#FFFFFF;stroke-linecap:round;stroke-linejoin:round;stroke-miterlimit:10;" x1="226.161" y1="434.215" x2="211.644" y2="434.215"/>
		
			<line style="fill:none;stroke:#FFFFFF;stroke-linecap:round;stroke-linejoin:round;stroke-miterlimit:10;" x1="226.161" y1="438.343" x2="203.383" y2="438.343"/>
		
			<line style="fill:none;stroke:#FFFFFF;stroke-linecap:round;stroke-linejoin:round;stroke-miterlimit:10;" x1="226.161" y1="442.471" x2="203.383" y2="442.471"/>
		<g>
			<path style="fill:#171659;" d="M230.544,404.213h-35.48c-1.175,0-2.128-0.953-2.128-2.129v-8.928
				c0-1.176,0.953-2.128,2.128-2.128h35.48c1.175,0,2.128,0.953,2.128,2.128v8.928C232.672,403.26,231.719,404.213,230.544,404.213z
				"/>
			
				<line style="fill:none;stroke:#130F40;stroke-linecap:round;stroke-linejoin:round;stroke-miterlimit:10;" x1="195.991" y1="393.488" x2="195.991" y2="402.329"/>
			
				<line style="fill:none;stroke:#130F40;stroke-linecap:round;stroke-linejoin:round;stroke-miterlimit:10;" x1="199.035" y1="393.488" x2="199.035" y2="402.329"/>
			
				<line style="fill:none;stroke:#130F40;stroke-linecap:round;stroke-linejoin:round;stroke-miterlimit:10;" x1="202.078" y1="393.488" x2="202.078" y2="402.329"/>
			
				<line style="fill:none;stroke:#130F40;stroke-linecap:round;stroke-linejoin:round;stroke-miterlimit:10;" x1="205.122" y1="393.488" x2="205.122" y2="402.329"/>
			
				<line style="fill:none;stroke:#130F40;stroke-linecap:round;stroke-linejoin:round;stroke-miterlimit:10;" x1="208.166" y1="393.488" x2="208.166" y2="402.329"/>
			
				<line style="fill:none;stroke:#130F40;stroke-linecap:round;stroke-linejoin:round;stroke-miterlimit:10;" x1="211.209" y1="393.488" x2="211.209" y2="402.329"/>
			
				<line style="fill:none;stroke:#130F40;stroke-linecap:round;stroke-linejoin:round;stroke-miterlimit:10;" x1="214.253" y1="393.488" x2="214.253" y2="402.329"/>
			
				<line style="fill:none;stroke:#130F40;stroke-linecap:round;stroke-linejoin:round;stroke-miterlimit:10;" x1="217.297" y1="393.488" x2="217.297" y2="402.329"/>
			
				<line style="fill:none;stroke:#130F40;stroke-linecap:round;stroke-linejoin:round;stroke-miterlimit:10;" x1="220.34" y1="393.488" x2="220.34" y2="402.329"/>
			
				<line style="fill:none;stroke:#130F40;stroke-linecap:round;stroke-linejoin:round;stroke-miterlimit:10;" x1="223.384" y1="393.488" x2="223.384" y2="402.329"/>
			
				<line style="fill:none;stroke:#130F40;stroke-linecap:round;stroke-linejoin:round;stroke-miterlimit:10;" x1="226.428" y1="393.488" x2="226.428" y2="402.329"/>
			
				<line style="fill:none;stroke:#130F40;stroke-linecap:round;stroke-linejoin:round;stroke-miterlimit:10;" x1="229.472" y1="393.488" x2="229.472" y2="402.329"/>
		</g>
	</g>
	<g>
		<polygon style="fill:#B3B3FF;" points="209.681,352.866 210.34,353.344 236.137,317.746 234.761,318.257 		"/>
		<path style="fill:#FFFFFF;" d="M209.231,368.379l-44.072,60.804l-4.882-3.525l-3.745-2.713l-4.858-3.525l44.072-60.816
			c1.229-1.693,3.745-1.971,5.693-0.649c0.046,0.035,0.093,0.07,0.128,0.093l6.377,4.615c0.035,0.035,0.081,0.058,0.116,0.093
			C209.926,364.193,210.46,366.674,209.231,368.379z"/>
		<path style="fill:#0071BC;" d="M195.744,358.602l-23.05,31.807l13.484,9.772l23.05-31.807c1.228-1.694,0.702-4.177-1.164-5.614
			c-0.039-0.033-0.084-0.066-0.125-0.096l-6.367-4.614c-0.041-0.03-0.086-0.063-0.13-0.089
			C199.495,356.635,196.972,356.908,195.744,358.602z"/>
		<path style="fill:#FFFFFF;" d="M201.839,358.248c0.039,0.023,0.078,0.052,0.115,0.078l5.603,4.06
			c0.036,0.026,0.076,0.055,0.11,0.085l6.619-11.798l-3.296-2.389L201.839,358.248z"/>
		
			<rect x="171.766" y="394.908" transform="matrix(-0.8097 -0.5868 0.5868 -0.8097 89.6462 822.9536)" style="opacity:0.6;fill:#171659;" width="12.952" height="4.071"/>
		<path style="fill:#FFFFFF;" d="M195.744,358.602l-44.07,60.813l13.484,9.772l44.07-60.813c1.228-1.694,0.702-4.177-1.164-5.614
			c-0.039-0.033-0.084-0.066-0.125-0.096l-6.367-4.614c-0.041-0.03-0.086-0.063-0.13-0.089
			C199.495,356.635,196.972,356.908,195.744,358.602z M197.589,359.21c0.393-0.543,1.288-0.569,2.039-0.05l0.085,0.056l7.777,5.641
			c0.727,0.552,0.98,1.411,0.587,1.954l-43.222,59.643l-10.488-7.6L197.589,359.21z"/>
		
			<rect x="142.196" y="423.991" transform="matrix(-0.8097 -0.5868 0.5868 -0.8097 35.2105 862.6556)" style="fill:#FFFFFF;" width="30.53" height="3.256"/>
		<path style="fill:#171659;" d="M132.405,449.141l10.462,7.581c0.628,0.455,1.506,0.315,1.96-0.313l0.263-0.363
			c0.455-0.628,0.315-1.506-0.313-1.961l-10.46-7.58c-0.628-0.455-1.506-0.315-1.961,0.313l-0.263,0.363
			C131.637,447.808,131.777,448.686,132.405,449.141z"/>
		
			<rect x="132.921" y="434.987" transform="matrix(0.5871 -0.8095 0.8095 0.5871 -292.4877 301.1614)" style="fill:#171659;" width="32.113" height="4.625"/>
		
			<rect x="151.849" y="409.136" transform="matrix(0.5871 -0.8095 0.8095 0.5871 -263.8152 305.6482)" style="opacity:0.6;fill:#171659;" width="31.756" height="4.625"/>
		<g>
			
				<rect x="194.162" y="363.985" transform="matrix(-0.8097 -0.5868 0.5868 -0.8097 142.4718 775.7944)" style="fill:#FFFFFF;" width="5.699" height="1.628"/>
			
				<rect x="190.818" y="368.599" transform="matrix(-0.8097 -0.5868 0.5868 -0.8097 133.7166 782.1837)" style="fill:#FFFFFF;" width="5.699" height="1.628"/>
			
				<rect x="187.474" y="373.214" transform="matrix(-0.8097 -0.5868 0.5868 -0.8097 124.9525 788.5719)" style="fill:#FFFFFF;" width="5.699" height="1.628"/>
			
				<rect x="184.13" y="377.828" transform="matrix(-0.8097 -0.5868 0.5868 -0.8097 116.1972 794.9614)" style="fill:#FFFFFF;" width="5.699" height="1.628"/>
			
				<rect x="180.786" y="382.443" transform="matrix(-0.8097 -0.5868 0.5868 -0.8097 107.4333 801.3495)" style="fill:#FFFFFF;" width="5.699" height="1.628"/>
			
				<rect x="177.442" y="387.058" transform="matrix(-0.8097 -0.5868 0.5868 -0.8097 98.6737 807.7382)" style="fill:#FFFFFF;" width="5.699" height="1.628"/>
			
				<rect x="174.098" y="391.672" transform="matrix(-0.8097 -0.5868 0.5868 -0.8097 89.9078 814.1257)" style="fill:#FFFFFF;" width="5.699" height="1.628"/>
			
				<rect x="170.754" y="396.287" transform="matrix(-0.8097 -0.5868 0.5868 -0.8097 81.1585 820.5168)" style="fill:#0071BC;" width="5.699" height="1.628"/>
			
				<rect x="167.41" y="400.901" transform="matrix(-0.8097 -0.5868 0.5868 -0.8097 72.3988 826.9055)" style="fill:#0071BC;" width="5.699" height="1.628"/>
			
				<rect x="164.066" y="405.516" transform="matrix(-0.8097 -0.5868 0.5868 -0.8097 63.6407 833.2947)" style="fill:#0071BC;" width="5.699" height="1.628"/>
		</g>
	</g>
	<g>
		<path style="fill:#B3B3FF;" d="M88.55,226.665c-3.73,0-3.737,5.798,0,5.798C92.281,232.463,92.287,226.665,88.55,226.665z"/>
		<path style="fill:#B3B3FF;" d="M401.614,209.273c-3.73,0-3.737,5.798,0,5.798C405.345,215.07,405.351,209.273,401.614,209.273z"/>
		<path style="fill:#B3B3FF;" d="M413.789,353.63c-3.73,0-3.737,5.797,0,5.797C417.519,359.427,417.525,353.63,413.789,353.63z"/>
		<path style="fill:#B3B3FF;" d="M213.776,301.453c-3.73,0-3.737,5.797,0,5.797C217.506,307.25,217.512,301.453,213.776,301.453z"/>
		<path style="fill:#B3B3FF;" d="M207.978,124.05c-3.73,0-3.737,5.798,0,5.798C211.709,129.847,211.715,124.05,207.978,124.05z"/>
		<path style="fill:#B3B3FF;" d="M335.523,93.903c-3.73,0-3.737,5.797,0,5.797C339.253,99.7,339.259,93.903,335.523,93.903z"/>
		<path style="fill:#B3B3FF;" d="M93.768,198.837c-5.223,0-5.231,8.117,0,8.117C98.99,206.954,98.999,198.837,93.768,198.837z"/>
		<path style="fill:#B3B3FF;" d="M398.715,314.207c-5.222,0-5.231,8.117,0,8.117C403.938,322.324,403.947,314.207,398.715,314.207z"
			/>
		<path style="fill:#B3B3FF;" d="M334.943,147.24c-5.223,0-5.231,8.117,0,8.117C340.166,155.356,340.174,147.24,334.943,147.24z"/>
		<path style="fill:#B3B3FF;" d="M196.383,169.27c-5.223,0-5.231,8.117,0,8.117C201.606,177.387,201.615,169.27,196.383,169.27z"/>
	</g>
	
		<line style="fill:none;stroke:#130F40;stroke-linecap:round;stroke-linejoin:round;stroke-miterlimit:10;" x1="79.509" y1="457.658" x2="420.491" y2="457.658"/>
</g>
</svg>
